<svg width="1024" height="1024" viewBox="0 0 1024 1024" fill="none" xmlns="http://www.w3.org/2000/svg">
<g clip-path="url(#clip0_1_1293)">
<rect width="1024" height="1024" fill="#101010"/>
<path d="M394.45 610.401C385.327 612.965 356.493 612.784 347.388 611.195C323.27 606.986 327.987 574.257 327.994 556.843L327.968 356.771C327.959 338.838 326.403 314.913 348.904 310.422C355.994 310.034 363.291 310.381 370.399 310.394C384.828 310.418 402.254 307.999 408.939 324.563C419.554 350.862 420.431 570.937 409.086 596.88C406.18 603.525 401.136 607.835 394.45 610.401Z" fill="#AFFC4C"/>
<path d="M673.155 611.762L652.133 611.79C634.692 611.826 619.522 611.294 615.507 589.231C612.87 574.733 612.519 559.544 611.633 544.856C607.94 483.672 607.691 415.099 613.179 353.807C614.742 336.349 615.287 314.38 636.975 310.42C646.298 309.792 674.11 309.591 681.084 311.234C700.989 315.924 698.94 341.365 698.861 357.037L698.838 549.273C698.85 571.752 705.651 610.208 673.155 611.762Z" fill="#AFFC4C"/>
<path d="M282.788 602.159C251.36 584.488 247.616 520.809 247.579 489.001L247.563 451.358C247.571 423.5 248.787 317.868 292.461 318.214C333.225 310.782 324.672 434.606 324.674 454.39C324.678 484.345 327.033 562.842 316.421 587.237C310.411 601.057 297.238 608.668 282.788 602.159Z" fill="#AFFC4C"/>
<path d="M747.383 599.703C739.376 605.072 729.603 606.026 721.247 600.625C703.82 589.364 703.634 554.179 702.714 535.755C700.544 492.24 701.618 445.711 702.716 401.978C703.302 378.62 700.677 324.227 730.539 318.213C780.914 313.718 780.188 433.661 780.197 463.151C780.207 501.728 780.983 574.592 747.383 599.703Z" fill="#AFFC4C"/>
<path d="M215.745 498.586C207.801 491.783 203.332 482.082 202.366 471.769C199.583 442.051 207.337 412.629 241.715 409.844C244.406 409.882 244.124 411.701 244.114 414.073L243.229 509.381C233.152 509.447 223.367 504.988 215.745 498.586Z" fill="#AFFC4C"/>
<path d="M784.631 507.758L784.64 439.584C784.64 429.924 783.453 419.366 784.631 409.844C805.024 410.039 822.391 425.467 824.707 445.805C827.183 467.545 826.463 480.264 813.138 496.872C803.394 503.245 796.491 506.95 784.631 507.758Z" fill="#AFFC4C"/>
<path d="M420.046 424.697C422.351 424.759 424.664 424.71 426.97 424.697H606.591V496.873C603.921 497.023 601.255 496.931 598.585 496.873L479.723 496.871C459.843 496.873 439.92 497.176 420.046 496.873C418.967 476.097 419.018 445.498 420.046 424.697Z" fill="#AFFC4C"/>
<path d="M123.508 829.598V745.489H139.779V829.598H123.508ZM135.472 795.141V780.664H177.825V795.141H135.472ZM135.472 759.846V745.489H179.859V759.846H135.472ZM191.001 829.598V771.81H206.794V829.598H191.001ZM198.897 762.478C196.345 762.478 194.231 761.641 192.556 759.966C190.881 758.211 190.044 756.058 190.044 753.505C190.044 751.033 190.881 748.919 192.556 747.164C194.231 745.409 196.345 744.532 198.897 744.532C201.529 744.532 203.643 745.409 205.238 747.164C206.913 748.919 207.751 751.033 207.751 753.505C207.751 756.058 206.913 758.211 205.238 759.966C203.643 761.641 201.529 762.478 198.897 762.478ZM229.172 829.598V747.762H244.845V829.598H229.172ZM215.653 785.569V771.81H258.365V785.569H215.653ZM306.063 829.598V796.457C306.063 793.027 304.986 790.235 302.833 788.082C300.679 785.928 297.887 784.851 294.458 784.851C292.224 784.851 290.23 785.33 288.476 786.287C286.721 787.244 285.325 788.6 284.288 790.355C283.331 792.11 282.852 794.144 282.852 796.457L276.751 793.346C276.751 788.8 277.708 784.851 279.622 781.501C281.616 778.072 284.328 775.4 287.758 773.485C291.267 771.571 295.215 770.614 299.602 770.614C303.83 770.614 307.618 771.691 310.968 773.844C314.318 775.918 316.95 778.67 318.865 782.1C320.779 785.45 321.736 789.079 321.736 792.987V829.598H306.063ZM267.179 829.598V771.81H282.852V829.598H267.179ZM361.999 830.794C355.937 830.794 350.553 829.518 345.847 826.966C341.141 824.333 337.392 820.744 334.6 816.198C331.889 811.651 330.533 806.467 330.533 800.644C330.533 794.901 331.849 789.797 334.481 785.33C337.193 780.784 340.862 777.194 345.488 774.562C350.114 771.85 355.259 770.494 360.922 770.494C366.505 770.494 371.41 771.771 375.638 774.323C379.945 776.796 383.295 780.225 385.688 784.612C388.16 788.919 389.397 793.825 389.397 799.328C389.397 800.365 389.317 801.442 389.157 802.559C389.078 803.595 388.878 804.792 388.559 806.148L339.984 806.267V794.542L381.261 794.423L374.92 799.328C374.76 795.898 374.122 793.027 373.006 790.714C371.969 788.401 370.413 786.646 368.34 785.45C366.346 784.173 363.873 783.535 360.922 783.535C357.811 783.535 355.099 784.253 352.786 785.689C350.473 787.045 348.678 788.999 347.402 791.551C346.206 794.024 345.608 796.975 345.608 800.405C345.608 803.914 346.246 806.985 347.522 809.617C348.878 812.17 350.792 814.164 353.265 815.6C355.737 816.955 358.609 817.633 361.879 817.633C364.83 817.633 367.502 817.155 369.895 816.198C372.288 815.161 374.362 813.645 376.116 811.651L385.329 820.864C382.537 824.134 379.107 826.607 375.04 828.282C371.051 829.957 366.704 830.794 361.999 830.794ZM418.95 830.914C415.68 830.914 412.45 830.475 409.259 829.598C406.148 828.72 403.277 827.524 400.645 826.008C398.013 824.413 395.74 822.499 393.825 820.266L403.157 810.814C405.151 813.047 407.464 814.722 410.097 815.839C412.729 816.955 415.64 817.514 418.83 817.514C421.383 817.514 423.297 817.155 424.573 816.437C425.929 815.719 426.607 814.642 426.607 813.207C426.607 811.611 425.889 810.375 424.454 809.498C423.098 808.62 421.303 807.903 419.07 807.344C416.836 806.706 414.483 806.028 412.011 805.31C409.618 804.513 407.305 803.516 405.072 802.319C402.838 801.043 401.004 799.328 399.568 797.175C398.212 794.941 397.534 792.07 397.534 788.56C397.534 784.891 398.412 781.701 400.166 778.989C402.001 776.277 404.593 774.163 407.943 772.648C411.293 771.132 415.241 770.375 419.788 770.375C424.573 770.375 428.88 771.212 432.709 772.887C436.617 774.562 439.848 777.075 442.4 780.425L432.948 789.876C431.194 787.723 429.199 786.168 426.966 785.21C424.813 784.253 422.46 783.775 419.907 783.775C417.594 783.775 415.8 784.134 414.523 784.851C413.327 785.569 412.729 786.566 412.729 787.843C412.729 789.278 413.407 790.395 414.763 791.192C416.198 791.99 418.033 792.708 420.266 793.346C422.5 793.904 424.813 794.582 427.205 795.38C429.678 796.098 431.991 797.135 434.145 798.491C436.378 799.847 438.173 801.641 439.529 803.875C440.964 806.108 441.682 808.979 441.682 812.489C441.682 818.152 439.648 822.658 435.58 826.008C431.513 829.279 425.969 830.914 418.95 830.914ZM472.112 830.914C468.841 830.914 465.611 830.475 462.42 829.598C459.31 828.72 456.438 827.524 453.806 826.008C451.174 824.413 448.901 822.499 446.987 820.266L456.319 810.814C458.313 813.047 460.626 814.722 463.258 815.839C465.89 816.955 468.801 817.514 471.992 817.514C474.544 817.514 476.459 817.155 477.735 816.437C479.091 815.719 479.769 814.642 479.769 813.207C479.769 811.611 479.051 810.375 477.615 809.498C476.259 808.62 474.464 807.903 472.231 807.344C469.998 806.706 467.645 806.028 465.172 805.31C462.779 804.513 460.466 803.516 458.233 802.319C456 801.043 454.165 799.328 452.729 797.175C451.374 794.941 450.696 792.07 450.696 788.56C450.696 784.891 451.573 781.701 453.328 778.989C455.162 776.277 457.754 774.163 461.104 772.648C464.454 771.132 468.403 770.375 472.949 770.375C477.735 770.375 482.042 771.212 485.87 772.887C489.779 774.562 493.009 777.075 495.561 780.425L486.11 789.876C484.355 787.723 482.361 786.168 480.128 785.21C477.974 784.253 475.621 783.775 473.069 783.775C470.756 783.775 468.961 784.134 467.685 784.851C466.488 785.569 465.89 786.566 465.89 787.843C465.89 789.278 466.568 790.395 467.924 791.192C469.36 791.99 471.194 792.708 473.428 793.346C475.661 793.904 477.974 794.582 480.367 795.38C482.839 796.098 485.153 797.135 487.306 798.491C489.539 799.847 491.334 801.641 492.69 803.875C494.126 806.108 494.844 808.979 494.844 812.489C494.844 818.152 492.81 822.658 488.742 826.008C484.674 829.279 479.131 830.914 472.112 830.914ZM530.455 829.598V745.489H541.94L576.039 800.046H569.458L603.437 745.489H614.922V829.598H598.771V773.366L601.881 774.323L578.192 812.369H567.185L543.496 774.323L546.726 773.366V829.598H530.455ZM654.597 830.794C649.332 830.794 644.587 829.478 640.359 826.846C636.132 824.214 632.822 820.624 630.429 816.078C628.036 811.532 626.84 806.427 626.84 800.764C626.84 795.021 628.036 789.876 630.429 785.33C632.822 780.784 636.132 777.194 640.359 774.562C644.587 771.93 649.332 770.614 654.597 770.614C658.744 770.614 662.453 771.452 665.723 773.127C668.994 774.802 671.586 777.154 673.5 780.185C675.494 783.137 676.571 786.487 676.731 790.235V811.053C676.571 814.882 675.494 818.272 673.5 821.223C671.586 824.174 668.994 826.527 665.723 828.282C662.453 829.957 658.744 830.794 654.597 830.794ZM657.468 816.317C661.855 816.317 665.404 814.882 668.116 812.01C670.828 809.059 672.184 805.27 672.184 800.644C672.184 797.613 671.546 794.941 670.27 792.628C669.073 790.235 667.359 788.401 665.125 787.125C662.972 785.769 660.419 785.091 657.468 785.091C654.597 785.091 652.044 785.769 649.811 787.125C647.657 788.401 645.943 790.235 644.666 792.628C643.47 794.941 642.872 797.613 642.872 800.644C642.872 803.755 643.47 806.507 644.666 808.9C645.943 811.213 647.657 813.047 649.811 814.403C652.044 815.679 654.597 816.317 657.468 816.317ZM671.347 829.598V814.044L673.859 799.926L671.347 786.048V771.81H686.9V829.598H671.347ZM720.626 830.914C717.356 830.914 714.126 830.475 710.935 829.598C707.824 828.72 704.953 827.524 702.321 826.008C699.689 824.413 697.416 822.499 695.501 820.266L704.833 810.814C706.827 813.047 709.141 814.722 711.773 815.839C714.405 816.955 717.316 817.514 720.507 817.514C723.059 817.514 724.973 817.155 726.249 816.437C727.605 815.719 728.283 814.642 728.283 813.207C728.283 811.611 727.565 810.375 726.13 809.498C724.774 808.62 722.979 807.903 720.746 807.344C718.512 806.706 716.16 806.028 713.687 805.31C711.294 804.513 708.981 803.516 706.748 802.319C704.514 801.043 702.68 799.328 701.244 797.175C699.888 794.941 699.21 792.07 699.21 788.56C699.21 784.891 700.088 781.701 701.842 778.989C703.677 776.277 706.269 774.163 709.619 772.648C712.969 771.132 716.917 770.375 721.464 770.375C726.249 770.375 730.556 771.212 734.385 772.887C738.293 774.562 741.524 777.075 744.076 780.425L734.624 789.876C732.87 787.723 730.876 786.168 728.642 785.21C726.489 784.253 724.136 783.775 721.583 783.775C719.27 783.775 717.476 784.134 716.199 784.851C715.003 785.569 714.405 786.566 714.405 787.843C714.405 789.278 715.083 790.395 716.439 791.192C717.874 791.99 719.709 792.708 721.942 793.346C724.176 793.904 726.489 794.582 728.881 795.38C731.354 796.098 733.667 797.135 735.821 798.491C738.054 799.847 739.849 801.641 741.205 803.875C742.64 806.108 743.358 808.979 743.358 812.489C743.358 818.152 741.324 822.658 737.256 826.008C733.189 829.279 727.645 830.914 720.626 830.914ZM762.422 829.598V747.762H778.095V829.598H762.422ZM748.902 785.569V771.81H791.614V785.569H748.902ZM826.664 830.794C820.602 830.794 815.218 829.518 810.512 826.966C805.806 824.333 802.057 820.744 799.266 816.198C796.554 811.651 795.198 806.467 795.198 800.644C795.198 794.901 796.514 789.797 799.146 785.33C801.858 780.784 805.527 777.194 810.153 774.562C814.779 771.85 819.924 770.494 825.587 770.494C831.17 770.494 836.076 771.771 840.303 774.323C844.61 776.796 847.96 780.225 850.353 784.612C852.826 788.919 854.062 793.825 854.062 799.328C854.062 800.365 853.982 801.442 853.823 802.559C853.743 803.595 853.543 804.792 853.224 806.148L804.65 806.267V794.542L845.926 794.423L839.585 799.328C839.426 795.898 838.788 793.027 837.671 790.714C836.634 788.401 835.079 786.646 833.005 785.45C831.011 784.173 828.538 783.535 825.587 783.535C822.476 783.535 819.764 784.253 817.451 785.689C815.138 787.045 813.344 788.999 812.067 791.551C810.871 794.024 810.273 796.975 810.273 800.405C810.273 803.914 810.911 806.985 812.187 809.617C813.543 812.17 815.457 814.164 817.93 815.6C820.402 816.955 823.274 817.633 826.544 817.633C829.495 817.633 832.167 817.155 834.56 816.198C836.953 815.161 839.027 813.645 840.782 811.651L849.994 820.864C847.202 824.134 843.773 826.607 839.705 828.282C835.717 829.957 831.37 830.794 826.664 830.794ZM863.755 829.598V771.81H879.428V829.598H863.755ZM879.428 797.653L873.326 793.585C874.044 786.487 876.118 780.903 879.547 776.835C882.977 772.688 887.922 770.614 894.383 770.614C897.175 770.614 899.687 771.093 901.921 772.05C904.154 772.927 906.188 774.403 908.022 776.476L898.212 787.723C897.334 786.766 896.257 786.048 894.981 785.569C893.785 785.091 892.389 784.851 890.794 784.851C887.444 784.851 884.692 785.928 882.539 788.082C880.465 790.156 879.428 793.346 879.428 797.653Z" fill="white"/>
</g>
<defs>
<clipPath id="clip0_1_1293">
<rect width="1024" height="1024" fill="white"/>
</clipPath>
</defs>
</svg>
