<svg width="41" height="40" viewBox="0 0 41 40" fill="none" xmlns="http://www.w3.org/2000/svg">
<rect x="0.5" width="40" height="40" rx="20" fill="#AFFC4C"/>
<path d="M26.29 30.75H14.71C11.97 30.75 9.75 28.52 9.75 25.78V18.37C9.75 17.01 10.59 15.3 11.67 14.46L17.06 10.26C18.68 8.99997 21.27 8.93997 22.95 10.12L29.13 14.45C30.32 15.28 31.25 17.06 31.25 18.51V25.79C31.25 28.52 29.03 30.75 26.29 30.75ZM17.98 11.44L12.59 15.64C11.88 16.2 11.25 17.47 11.25 18.37V25.78C11.25 27.69 12.8 29.25 14.71 29.25H26.29C28.2 29.25 29.75 27.7 29.75 25.79V18.51C29.75 17.55 29.06 16.22 28.27 15.68L22.09 11.35C20.95 10.55 19.07 10.59 17.98 11.44Z" fill="black"/>
<path d="M20.5 26.75C20.09 26.75 19.75 26.41 19.75 26V23C19.75 22.59 20.09 22.25 20.5 22.25C20.91 22.25 21.25 22.59 21.25 23V26C21.25 26.41 20.91 26.75 20.5 26.75Z" fill="black"/>
</svg>
